<svg
    xmlns="http://www.w3.org/2000/svg"
    viewBox="0 0 60 60"
    width="24"
    height="24"
    fill="#37a987"
>
    <path
        d="M24.84 50.537h10.32a1 1 0 0 0 0-2H24.84a1 1 0 0 0 0 2zm0 3.463h10.32a1 1 0 0 0 0-2H24.84a1 1 0 0 0 0 2zM30 10.922a1 1 0 0 0 1-1V7a1 1 0 0 0-2 0v2.922a1 1 0 0 0 1 1zm21.145 16.223a1 1 0 0 0-1-1h-2.922a1 1 0 0 0 0 2h2.922a1 1 0 0 0 1-1zm-42.29 0a1 1 0 0 0 1 1h2.922a1 1 0 0 0 0-2H9.855a1 1 0 0 0-1 1zm34.683-14.952-2.066 2.066a1 1 0 1 0 1.414 1.414l2.066-2.066a1 1 0 1 0-1.414-1.414zm-28.49 29.904a.997.997 0 0 0 1.414 0l2.066-2.066a1 1 0 1 0-1.414-1.414l-2.066 2.066a1 1 0 0 0 0 1.414zm26.424-3.48a1 1 0 0 0 0 1.414l2.066 2.066a.997.997 0 0 0 1.414 0 1 1 0 0 0 0-1.414l-2.066-2.066a1 1 0 0 0-1.414 0zm-25.01-26.424a1 1 0 1 0-1.414 1.414l2.066 2.066a.997.997 0 0 0 1.414 0 1 1 0 0 0 0-1.414l-2.066-2.066zm6.948.04a1 1 0 0 0 .923-1.383l-1.118-2.7a1 1 0 0 0-1.848.767l1.118 2.699c.16.384.532.617.925.617zm24.819 6.28-2.7 1.117a1 1 0 1 0 .766 1.848l2.7-1.118a1 1 0 1 0-.766-1.848zM13.705 32.811l-2.7 1.118a1 1 0 1 0 .766 1.848l2.7-1.118a1 1 0 1 0-.766-1.848zM36.59 12.233c.393 0 .765-.233.925-.617l1.118-2.7a1 1 0 1 0-1.848-.765l-1.118 2.7a1 1 0 0 0 .923 1.382zm8.94 22.427 2.699 1.118a1 1 0 1 0 .765-1.848l-2.7-1.118a1 1 0 1 0-.765 1.848zM11.77 18.512a.999.999 0 1 0-.765 1.848l2.7 1.118a1 1 0 1 0 .765-1.848l-2.7-1.118zm3.862 8.172a14.378 14.378 0 0 0 4.543 10.962 11.545 11.545 0 0 1 2.708 3.83c.635 1.465.956 3.012.956 4.598a1 1 0 0 0 1 1h10.32a1 1 0 0 0 1-1c0-3.177 1.34-6.256 3.675-8.447a14.408 14.408 0 0 0 4.541-10.479c0-3.97-1.584-7.667-4.46-10.407a14.245 14.245 0 0 0-10.63-3.95c-7.422.355-13.418 6.458-13.653 13.893zm11.915 2.429 1.901 1.259a.999.999 0 0 0 1.104 0l1.901-1.26-1.282 15.962H28.83l-1.282-15.961zm1.834-14.324c3.427-.165 6.679 1.042 9.155 3.4a12.265 12.265 0 0 1 3.839 8.96 12.4 12.4 0 0 1-3.91 9.019 13.668 13.668 0 0 0-4.268 8.906h-1.02l1.434-17.849a1 1 0 0 0-1.548-.914l-3.063 2.027-3.063-2.027a.999.999 0 0 0-1.548.914l1.434 17.849h-1.02a13.521 13.521 0 0 0-4.263-8.89 12.376 12.376 0 0 1-3.909-9.437c.202-6.4 5.363-11.652 11.75-11.958z" />
</svg>