<svg id="Layer_1" data-name="Layer 1" xmlns="http://www.w3.org/2000/svg" viewBox="0 0 2932 820.62"><defs><style>.cls-1{fill:#37A987;}.cls-2{font-size:562.65px;fill:#ffffff;font-family:Poppins-Bold, Poppins;font-weight:700;}</style></defs><title>DTonomyURLSCAN</title><path class="cls-1" d="M285.15,653.59h-251c-.87,0-1.67.08-1.33-1.19.19-.81.42-1.62.57-2.44q7.26-39.79,14.5-79.58,6-33,11.91-66.08c2.17-12.08,4.14-24.19,6.47-36.24,1.77-9.17,5.61-17.36,13-23.46a23.15,23.15,0,0,1,15.26-5.8c27.65.11,55.31.05,83,.05h1.77c1.08,0,1.54.47,1.34,1.57s-.31,2.15-.46,3.22l-10.86,77.91q-1.47,10.62-3,21.24c-.29,2.09-.18,2.1,1.88,2.26,5.7.45,11.42.22,17.14.45,7.87.33,15.76.09,23.65.32,7,.21,14-.06,21-.17,7.25-.12,14.48-.31,21.7-.95a25.91,25.91,0,0,0,13-4.54c5.72-4,9.19-9.65,11.56-16.07,1.83-4.94,2.35-10.17,3.3-15.3q6.31-34.24,12.51-68.52c.41-2.28.45-2.34,2.73-2.34,7.74,0,15.47-.22,23.21-.24,27.46,0,54.92-.41,82.37.22,2.15.05,2.26-.07,2.27-2.24,0-7.14.08-14.28-.53-21.42-1-11.45-3-22.67-7-33.46-6.24-16.63-16.57-29.89-32.15-38.81-10.78-6.17-22.51-9.73-34.55-12.28-7.29-1.55-14.78-1.69-22.21-2.06-8.66-.43-17.33-.7-26-.89-9.41-.21-18.82-.34-28.24-.33-33.32,0-66.64-.23-100,.2-10.79.13-21.58-.1-32.38-.28a36.93,36.93,0,0,1-10.92-1.65c-9.07-2.94-14.61-13.26-12.85-22.12,4.22-21.17,7.79-42.47,11.61-63.72,1.32-7.28,2.65-14.55,3.92-21.83.23-1.36.78-2,2.22-1.92,1.18.07,2.36-.16,3.54-.18,12.27-.21,24.54-.45,36.81-.59,7.74-.1,15.48-.06,23.22-.09a5.06,5.06,0,0,0,2.18-.26H283.67a5.57,5.57,0,0,0,2.33.26c8.52.13,17.05.07,25.57.23q19,.36,38,.63a52.61,52.61,0,0,1,12.7,1.59c2.53.65,5.08,1.24,7.6,1.91,24.79,6.61,48,16.72,69.13,31.38a180,180,0,0,1,35.84,32.67,170.21,170.21,0,0,1,28.53,48.62,178,178,0,0,1,10.79,45.77q.44,4.26.85,8.52v22.48a10.37,10.37,0,0,0-.26,1.44c-.2,4.29-.64,8.55-1.17,12.81-3.62,29.2-12.9,56.62-26,82.85a221.16,221.16,0,0,1-15,24.8,327,327,0,0,1-33.16,41.57,291,291,0,0,1-29.35,27.25,267.84,267.84,0,0,1-59.29,36.47,224.27,224.27,0,0,1-55.58,16.94C291.88,652.73,288.51,653.13,285.15,653.59Z" transform="translate(-32.73 -43.95)"/><text class="cls-2" transform="translate(552.03 579.65)">Tonomy</text></svg>